Coordinates
version=1
nRows=21
nColumns=22
inDegrees=yes

Units are S.I. units (second, meters, Newtons, ...)
If the header above contains a line with 'inDegrees', this indicates whether rotational values are in degrees (yes) or radians (no).

endheader
time	pelvis_tilt	pelvis_list	pelvis_rotation	pelvis_tx	pelvis_ty	pelvis_tz	hip_flexion_r	hip_adduction_r	hip_rotation_r	knee_angle_r	ankle_angle_r	subtalar_angle_r	hip_flexion_l	hip_adduction_l	hip_rotation_l	knee_angle_l	ankle_angle_l	subtalar_angle_l	lumbar_extension	lumbar_bending	lumbar_rotation
      1.48000000	     -6.31102029	     -6.65576777	      4.31266015	     -1.04833957	      0.97089593	     -0.23918273	      9.79534783	      7.90845089	     -5.71230716	    -17.51866860	     12.01962411	     -1.53619569	      7.76773495	     -8.38118655	      6.25561090	    -11.89456913	     13.28571044	      2.50279992	      0.23050943	      6.52159162	     -7.17437761
      1.49000000	     -6.24945710	     -6.66094255	      4.27559016	     -1.04645654	      0.97060275	     -0.23792489	      9.62880989	      8.01639862	     -5.60978660	    -17.55586013	     12.15054104	     -1.57253254	      8.11393187	     -8.42803683	      6.28356835	    -12.83278243	     13.61147465	      2.67015445	      0.19862967	      6.52464099	     -7.17041705
      1.50000000	     -6.15466865	     -6.67212888	      4.24502298	     -1.04450478	      0.97028159	     -0.23668514	      9.42803371	      8.12711166	     -5.54537288	    -17.60315112	     12.31862880	     -1.60670750	      8.50303332	     -8.47384399	      6.33169860	    -13.91192858	     13.97311034	      2.81923229	      0.13182473	      6.53532924	     -7.15032927
      1.51000000	     -6.04978761	     -6.71257856	      4.22252857	     -1.04251262	      0.96990291	     -0.23546855	      9.21594337	      8.26637379	     -5.49612152	    -17.64968232	     12.49343056	     -1.63484632	      8.97688937	     -8.53923963	      6.40190875	    -15.15126574	     14.35376770	      2.97647607	      0.05691474	      6.58033107	     -7.12787158
      1.52000000	     -5.93391512	     -6.77643021	      4.21319694	     -1.04046993	      0.96946564	     -0.23429169	      8.98844765	      8.42627453	     -5.46834813	    -17.69132267	     12.68261634	     -1.65724352	      9.53486877	     -8.61758741	      6.48672259	    -16.55002337	     14.74248869	      3.15962289	     -0.02676265	      6.65127158	     -7.10757212
      1.53000000	     -5.78891804	     -6.87104589	      4.21286792	     -1.03838958	      0.96899846	     -0.23315570	      8.73640665	      8.61773498	     -5.44172821	    -17.74432009	     12.87524099	     -1.66994678	     10.15058573	     -8.71890621	      6.58262518	    -18.09466000	     15.12901453	      3.34000279	     -0.14356049	      6.76024855	     -7.09459145
      1.54000000	     -5.65134066	     -6.97378344	      4.23340414	     -1.03623985	      0.96846369	     -0.23210366	      8.48155850	      8.80747673	     -5.46006064	    -17.78388035	     13.10694295	     -1.67851594	     10.85905766	     -8.81404429	      6.68461086	    -19.77749077	     15.49437464	      3.62419293	     -0.24391257	      6.87698575	     -7.06896111
      1.55000000	     -5.48252091	     -7.09806526	      4.26052313	     -1.03406654	      0.96792783	     -0.23110678	      8.20528249	      9.02047547	     -5.46157002	    -17.84467692	     13.33297979	     -1.67762232	     11.60420530	     -8.92379548	      6.79393010	    -21.57207217	     15.82841720	      3.93379380	     -0.38338502	      7.02311331	     -7.05626319
      1.56000000	     -5.27056141	     -7.24883239	      4.29288687	     -1.03178782	      0.96743978	     -0.23015292	      7.84669509	      9.26857292	     -5.44063909	    -17.84499601	     13.50595731	     -1.66725657	     12.34980826	     -9.05950215	      6.89290134	    -23.43965917	     16.11265903	      4.10425647	     -0.56511950	      7.20108150	     -7.02875267
      1.57000000	     -5.10351554	     -7.37362405	      4.34160703	     -1.02949968	      0.96688849	     -0.22929373	      7.54942654	      9.47364614	     -5.47248734	    -17.87660431	     13.75240290	     -1.66722152	     13.19653855	     -9.14706241	      7.01325407	    -25.38101092	     16.31888667	      4.49239022	     -0.69732243	      7.34795198	     -6.99492657
      1.58000000	     -4.89306002	     -7.49879445	      4.38179554	     -1.02710751	      0.96642713	     -0.22847005	      7.17433845	      9.68779858	     -5.46982169	    -17.86248336	     13.94679578	     -1.66812468	     14.00434535	     -9.23206542	      7.12694136	    -27.32586865	     16.47141095	      4.73580929	     -0.87741391	      7.49810905	     -6.93933251
      1.59000000	     -4.66515076	     -7.60333053	      4.40870076	     -1.02464985	      0.96603077	     -0.22768622	      6.77198471	      9.88247954	     -5.44073569	    -17.84706693	     14.12008281	     -1.67264434	     14.78836468	     -9.28653779	      7.24390533	    -29.24241867	     16.58651773	      4.88357659	     -1.08180853	      7.62687310	     -6.87326849
      1.60000000	     -4.47184765	     -7.67391963	      4.43412664	     -1.02211614	      0.96565225	     -0.22698535	      6.38914066	     10.03342055	     -5.42748785	    -17.81663721	     14.30786983	     -1.68819516	     15.59959914	     -9.28310112	      7.37767543	    -31.10382943	     16.62605522	      5.07021672	     -1.24455390	      7.71671228	     -6.78812557
      1.61000000	     -4.28595660	     -7.69808330	      4.43705249	     -1.01948819	      0.96534540	     -0.22635107	      5.99494887	     10.13228057	     -5.39617806	    -17.77441750	     14.49044583	     -1.70997866	     16.37404427	     -9.21363015	      7.51164359	    -32.84717605	     16.63497473	      5.22592944	     -1.40237364	      7.75794746	     -6.67433191
      1.62000000	     -4.12723690	     -7.66944929	      4.42169026	     -1.01677842	      0.96508716	     -0.22578986	      5.61683333	     10.16866624	     -5.35263038	    -17.73177910	     14.67083520	     -1.73902311	     17.12687202	     -9.06568533	      7.65336666	    -34.43848918	     16.62133424	      5.39642246	     -1.53128033	      7.73877403	     -6.53955338
      1.63000000	     -3.96422221	     -7.61062832	      4.38109689	     -1.01394045	      0.96490675	     -0.22530081	      5.20881284	     10.17045095	     -5.28472134	    -17.66728237	     14.83318073	     -1.75413693	     17.81292949	     -8.87476822	      7.76953638	    -35.84145362	     16.65612228	      5.44591330	     -1.66382161	      7.69127868	     -6.38249498
      1.64000000	     -3.78981803	     -7.47399010	      4.31972489	     -1.01096081	      0.96483983	     -0.22492463	      4.76218647	     10.08341958	     -5.19066253	    -17.58894256	     15.00013925	     -1.76940485	     18.39946863	     -8.58653589	      7.86218928	    -37.00613129	     16.66256443	      5.44238522	     -1.80897849	      7.56454798	     -6.20865511
      1.65000000	     -3.74596007	     -7.33460894	      4.24423275	     -1.00801737	      0.96463658	     -0.22461117	      4.49011785	      9.97428864	     -5.10940895	    -17.57133824	     15.16825671	     -1.77761521	     19.10515284	     -8.26191976	      7.98453239	    -37.99293931	     16.70697118	      5.56248770	     -1.81550301	      7.42804240	     -6.02326948
      1.66000000	     -3.65045592	     -7.15927356	      4.15893382	     -1.00492239	      0.96456897	     -0.22436505	      4.12577637	      9.83240002	     -4.98209005	    -17.51099617	     15.32639365	     -1.78837527	     19.67615592	     -7.89904005	      8.08913189	    -38.72127202	     16.73196548	      5.61300299	     -1.88152750	      7.25614813	     -5.84349168
      1.67000000	     -3.61944738	     -6.94129846	      4.04629764	     -1.00174911	      0.96446459	     -0.22416440	      3.83530356	      9.63047363	     -4.87672674	    -17.47509431	     15.47877812	     -1.79382583	     20.25966651	     -7.49351899	      8.14531668	    -39.22171963	     16.73497614	      5.71725182	     -1.88085710	      7.03276689	     -5.63106230
      1.68000000	     -3.60277558	     -6.72161035	      3.93124818	     -0.99851234	      0.96436397	     -0.22400275	      3.55517868	      9.42650823	     -4.74142354	    -17.43734321	     15.63274174	     -1.80136493	     20.81903555	     -7.08684650	      8.20570001	    -39.50975773	     16.69661318	      5.82025396	     -1.87118671	      6.80628697	     -5.43175335
